G04 #@! TF.GenerationSoftware,KiCad,Pcbnew,(6.0.1)*
G04 #@! TF.CreationDate,2022-03-21T22:02:58-04:00*
G04 #@! TF.ProjectId,irled,69726c65-642e-46b6-9963-61645f706362,rev?*
G04 #@! TF.SameCoordinates,Original*
G04 #@! TF.FileFunction,Copper,L2,Bot*
G04 #@! TF.FilePolarity,Positive*
%FSLAX46Y46*%
G04 Gerber Fmt 4.6, Leading zero omitted, Abs format (unit mm)*
G04 Created by KiCad (PCBNEW (6.0.1)) date 2022-03-21 22:02:58*
%MOMM*%
%LPD*%
G01*
G04 APERTURE LIST*
G04 Aperture macros list*
%AMRoundRect*
0 Rectangle with rounded corners*
0 $1 Rounding radius*
0 $2 $3 $4 $5 $6 $7 $8 $9 X,Y pos of 4 corners*
0 Add a 4 corners polygon primitive as box body*
4,1,4,$2,$3,$4,$5,$6,$7,$8,$9,$2,$3,0*
0 Add four circle primitives for the rounded corners*
1,1,$1+$1,$2,$3*
1,1,$1+$1,$4,$5*
1,1,$1+$1,$6,$7*
1,1,$1+$1,$8,$9*
0 Add four rect primitives between the rounded corners*
20,1,$1+$1,$2,$3,$4,$5,0*
20,1,$1+$1,$4,$5,$6,$7,0*
20,1,$1+$1,$6,$7,$8,$9,0*
20,1,$1+$1,$8,$9,$2,$3,0*%
G04 Aperture macros list end*
G04 #@! TA.AperFunction,ComponentPad*
%ADD10C,2.200000*%
G04 #@! TD*
G04 #@! TA.AperFunction,ComponentPad*
%ADD11RoundRect,0.250200X0.649800X-0.649800X0.649800X0.649800X-0.649800X0.649800X-0.649800X-0.649800X0*%
G04 #@! TD*
G04 #@! TA.AperFunction,ComponentPad*
%ADD12C,1.800000*%
G04 #@! TD*
G04 #@! TA.AperFunction,ComponentPad*
%ADD13C,1.600000*%
G04 #@! TD*
G04 #@! TA.AperFunction,ComponentPad*
%ADD14O,1.600000X1.600000*%
G04 #@! TD*
G04 #@! TA.AperFunction,ComponentPad*
%ADD15R,1.500000X1.050000*%
G04 #@! TD*
G04 #@! TA.AperFunction,ComponentPad*
%ADD16O,1.500000X1.050000*%
G04 #@! TD*
G04 #@! TA.AperFunction,ComponentPad*
%ADD17R,1.700000X1.700000*%
G04 #@! TD*
G04 #@! TA.AperFunction,ComponentPad*
%ADD18O,1.700000X1.700000*%
G04 #@! TD*
G04 #@! TA.AperFunction,ComponentPad*
%ADD19R,1.800000X1.800000*%
G04 #@! TD*
G04 #@! TA.AperFunction,ViaPad*
%ADD20C,0.800000*%
G04 #@! TD*
G04 #@! TA.AperFunction,Conductor*
%ADD21C,0.250000*%
G04 #@! TD*
G04 APERTURE END LIST*
D10*
X152400000Y-96520000D03*
X157400000Y-96520000D03*
X152400000Y-101520000D03*
X157400000Y-101520000D03*
D11*
X172720000Y-101600000D03*
D12*
X172720000Y-99060000D03*
X172720000Y-96520000D03*
D13*
X165100000Y-81280000D03*
D14*
X152400000Y-81280000D03*
D13*
X142240000Y-88900000D03*
D14*
X142240000Y-78740000D03*
D15*
X147320000Y-81280000D03*
D16*
X147320000Y-80010000D03*
X147320000Y-78740000D03*
D17*
X137160000Y-82550000D03*
D18*
X137160000Y-85090000D03*
X137160000Y-87630000D03*
X137160000Y-90170000D03*
X137160000Y-92710000D03*
X137160000Y-95250000D03*
D19*
X172720000Y-83820000D03*
D12*
X172720000Y-86360000D03*
D20*
X161925000Y-86360000D03*
X169545000Y-100965000D03*
X142240000Y-95250000D03*
X149860000Y-88900000D03*
X149860000Y-88900000D03*
D21*
X161925000Y-86360000D02*
X165100000Y-86360000D01*
X147320000Y-91440000D02*
X149860000Y-88900000D01*
X147320000Y-99060000D02*
X147320000Y-91440000D01*
X149780000Y-101520000D02*
X147320000Y-99060000D01*
X152400000Y-101520000D02*
X149780000Y-101520000D01*
X149860000Y-86360000D02*
X161925000Y-86360000D01*
X165100000Y-86360000D02*
X165100000Y-88900000D01*
X147320000Y-86360000D02*
X149860000Y-86360000D01*
X144780000Y-88900000D02*
X147320000Y-86360000D01*
X165100000Y-99060000D02*
X172720000Y-99060000D01*
X162640000Y-101520000D02*
X165100000Y-99060000D01*
X157400000Y-101520000D02*
X162640000Y-101520000D01*
X152400000Y-101520000D02*
X157400000Y-101520000D01*
X143510000Y-85090000D02*
X147320000Y-81280000D01*
X137160000Y-85090000D02*
X143510000Y-85090000D01*
X140970000Y-92710000D02*
X137160000Y-92710000D01*
X144780000Y-88900000D02*
X140970000Y-92710000D01*
X172720000Y-96520000D02*
X165100000Y-88900000D01*
X175260000Y-106680000D02*
X147320000Y-106680000D01*
X175260000Y-91440000D02*
X175260000Y-106680000D01*
X172720000Y-88900000D02*
X175260000Y-91440000D01*
X137160000Y-96520000D02*
X137160000Y-95250000D01*
X172720000Y-86360000D02*
X172720000Y-88900000D01*
X147320000Y-106680000D02*
X137160000Y-96520000D01*
M02*
