M48
INCH,TZ
T1C0.0157
T2C0.0295
T3C0.0315
T4C0.0354
T5C0.0394
T6C0.0433
%
G90
G05
T1
X56000Y-37500
X59000Y-35000
X59000Y-35000
X63750Y-34000
X66750Y-39750
T2
X58000Y-31000
X58000Y-31500
X58000Y-32000
T3
X56000Y-31000
X56000Y-35000
X60000Y-32000
X65000Y-32000
T4
X68000Y-33000
X68000Y-34000
X68000Y-38000
X68000Y-39000
X68000Y-40000
T5
X54000Y-32500
X54000Y-33500
X54000Y-34500
X54000Y-35500
X54000Y-36500
X54000Y-37500
T6
X60000Y-38000
X60000Y-39969
X61969Y-38000
X61969Y-39969
T0
M30
